<mxfile host="app.diagrams.net" modified="2021-10-21T06:05:09.919Z" agent="5.0 (Windows)" etag="-G6XY8nnZLZCQzYV-v3p" version="15.5.4" type="github">
  <diagram id="rZIUIW_e95c4gq73NUB9" name="Page-1">
    <mxGraphModel dx="868" dy="423" grid="1" gridSize="10" guides="1" tooltips="1" connect="1" arrows="1" fold="1" page="1" pageScale="1" pageWidth="850" pageHeight="1100" math="0" shadow="0">
      <root>
        <mxCell id="0" />
        <mxCell id="1" parent="0" />
        <mxCell id="5VN9EDb2ZfZBKXKxDdyd-5" style="edgeStyle=orthogonalEdgeStyle;rounded=0;orthogonalLoop=1;jettySize=auto;html=1;" edge="1" parent="1" source="5VN9EDb2ZfZBKXKxDdyd-1" target="5VN9EDb2ZfZBKXKxDdyd-4">
          <mxGeometry relative="1" as="geometry" />
        </mxCell>
        <mxCell id="5VN9EDb2ZfZBKXKxDdyd-1" value="FUSION" style="rounded=0;whiteSpace=wrap;html=1;" vertex="1" parent="1">
          <mxGeometry x="70" y="170" width="130" height="240" as="geometry" />
        </mxCell>
        <mxCell id="5VN9EDb2ZfZBKXKxDdyd-11" style="edgeStyle=orthogonalEdgeStyle;rounded=0;orthogonalLoop=1;jettySize=auto;html=1;" edge="1" parent="1" source="5VN9EDb2ZfZBKXKxDdyd-2">
          <mxGeometry relative="1" as="geometry">
            <mxPoint x="430" y="310" as="targetPoint" />
            <Array as="points">
              <mxPoint x="550" y="330" />
              <mxPoint x="430" y="330" />
            </Array>
          </mxGeometry>
        </mxCell>
        <mxCell id="5VN9EDb2ZfZBKXKxDdyd-2" value="UCM" style="rounded=0;whiteSpace=wrap;html=1;" vertex="1" parent="1">
          <mxGeometry x="470" y="30" width="120" height="140" as="geometry" />
        </mxCell>
        <mxCell id="5VN9EDb2ZfZBKXKxDdyd-3" value="URA" style="rounded=0;whiteSpace=wrap;html=1;" vertex="1" parent="1">
          <mxGeometry x="670" y="230" width="120" height="240" as="geometry" />
        </mxCell>
        <mxCell id="5VN9EDb2ZfZBKXKxDdyd-4" value="" style="rounded=0;whiteSpace=wrap;html=1;" vertex="1" parent="1">
          <mxGeometry x="300" y="200" width="120" height="210" as="geometry" />
        </mxCell>
        <mxCell id="5VN9EDb2ZfZBKXKxDdyd-6" value="Autoinvoice" style="text;html=1;align=center;verticalAlign=middle;resizable=0;points=[];autosize=1;strokeColor=none;fillColor=none;" vertex="1" parent="1">
          <mxGeometry x="220" y="250" width="80" height="20" as="geometry" />
        </mxCell>
        <mxCell id="5VN9EDb2ZfZBKXKxDdyd-9" style="edgeStyle=orthogonalEdgeStyle;rounded=0;orthogonalLoop=1;jettySize=auto;html=1;entryX=0.367;entryY=1.05;entryDx=0;entryDy=0;entryPerimeter=0;" edge="1" parent="1" source="5VN9EDb2ZfZBKXKxDdyd-7" target="5VN9EDb2ZfZBKXKxDdyd-8">
          <mxGeometry relative="1" as="geometry" />
        </mxCell>
        <mxCell id="5VN9EDb2ZfZBKXKxDdyd-7" value="JOBID" style="text;html=1;strokeColor=none;fillColor=none;align=center;verticalAlign=middle;whiteSpace=wrap;rounded=0;" vertex="1" parent="1">
          <mxGeometry x="300" y="220" width="60" height="30" as="geometry" />
        </mxCell>
        <mxCell id="5VN9EDb2ZfZBKXKxDdyd-10" style="edgeStyle=orthogonalEdgeStyle;rounded=0;orthogonalLoop=1;jettySize=auto;html=1;" edge="1" parent="1" source="5VN9EDb2ZfZBKXKxDdyd-8" target="5VN9EDb2ZfZBKXKxDdyd-2">
          <mxGeometry relative="1" as="geometry" />
        </mxCell>
        <mxCell id="5VN9EDb2ZfZBKXKxDdyd-8" value="BIP" style="rounded=0;whiteSpace=wrap;html=1;" vertex="1" parent="1">
          <mxGeometry x="240" y="60" width="120" height="60" as="geometry" />
        </mxCell>
        <mxCell id="5VN9EDb2ZfZBKXKxDdyd-13" style="edgeStyle=orthogonalEdgeStyle;rounded=0;orthogonalLoop=1;jettySize=auto;html=1;entryX=-0.033;entryY=0.946;entryDx=0;entryDy=0;entryPerimeter=0;" edge="1" parent="1" source="5VN9EDb2ZfZBKXKxDdyd-12" target="5VN9EDb2ZfZBKXKxDdyd-3">
          <mxGeometry relative="1" as="geometry" />
        </mxCell>
        <mxCell id="5VN9EDb2ZfZBKXKxDdyd-12" value="1,2,3,4,5,6--1000" style="rounded=1;whiteSpace=wrap;html=1;" vertex="1" parent="1">
          <mxGeometry x="305" y="275" width="120" height="115" as="geometry" />
        </mxCell>
      </root>
    </mxGraphModel>
  </diagram>
</mxfile>
